# xmcd
#
# Track frame offsets: 
#        150
#        11017
#        23373
#        38941
#        50862
#        60507
#        77682
#        92556
#        108569
#        121196
#        131492
#        149643
#        156879
#        174377
#        188620
#        208051
#
# Disc length: 2993 seconds
#
# Revision: 0
# Processed by: cddbd v1.5.2PL0 Copyright (c) Steve Scherf et al.
# Submitted via: ExactAudioCopy v1.3
#
DISCID=d40baf10
DTITLE=Various Artist - The Music Of Nashville Season 6 (Volume 2)
DYEAR=2018
DGENRE=Country
TTITLE0=Clare Bowen, Jake Etherige - When You Came Along
TTITLE1=Jonathan Jackson - The Giver
TTITLE2=Rhiannon Giddens - Let Love In
TTITLE3=Rainee Blake - Sorry Now
TTITLE4=Rainee Blake, Chris Carmack, Jonathan Jackson, Sam Palladio - 
TTITLE4=Go
TTITLE5=Maisy Stella - Without Warning
TTITLE6=Ilse Delange - Love Goes On
TTITLE7=Ronny Cox - I'll Waltz You Home
TTITLE8=Sam Palladio - Going Electirc
TTITLE9=Jake Etheridge - Bring Me An Angel
TTITLE10=Lennon Stella - Little Fire
TTITLE11=Charles Esten - Itty Bitty Ditty
TTITLE12=Chris Carmack - My Turn
TTITLE13=Lennon Stella, Maisy Stella - Love Can Hold It All
TTITLE14=Hayden Panettiere - Free
TTITLE15=Nashville Cast - A Life That's Good
EXTD=
EXTT0=
EXTT1=
EXTT2=
EXTT3=
EXTT4=
EXTT5=
EXTT6=
EXTT7=
EXTT8=
EXTT9=
EXTT10=
EXTT11=
EXTT12=
EXTT13=
EXTT14=
EXTT15=
PLAYORDER=
